<svg width="248" height="43" viewBox="0 0 248 43" fill="none" xmlns="http://www.w3.org/2000/svg">
<path d="M45.4083 22.1025C45.4083 20.4011 45.6723 18.8318 46.2003 17.3945C46.7576 15.9278 47.5349 14.6665 48.5323 13.6105C49.5296 12.5251 50.7029 11.6891 52.0523 11.1025C53.4309 10.4865 54.9416 10.1785 56.5843 10.1785C58.3443 10.1785 59.7963 10.4865 60.9403 11.1025C62.0843 11.6891 63.0229 12.5251 63.7563 13.6105V1.90648H69.3003V33.5865H63.7563V30.5945C63.0229 31.6505 62.0696 32.4865 60.8963 33.1025C59.7523 33.6891 58.3003 33.9825 56.5403 33.9825C54.9269 33.9825 53.4309 33.6891 52.0523 33.1025C50.7029 32.4865 49.5296 31.6505 48.5323 30.5945C47.5349 29.5091 46.7576 28.2478 46.2003 26.8105C45.6723 25.3438 45.4083 23.7745 45.4083 22.1025ZM63.7563 20.9145C63.5216 19.3305 62.8323 18.0545 61.6883 17.0865C60.5443 16.1185 59.1509 15.6345 57.5083 15.6345C56.5403 15.6345 55.6603 15.8105 54.8683 16.1625C54.0763 16.5145 53.4016 16.9838 52.8443 17.5705C52.3163 18.1571 51.9056 18.8465 51.6123 19.6385C51.3189 20.4305 51.1723 21.2665 51.1723 22.1465C51.1723 22.9971 51.3189 23.8038 51.6123 24.5665C51.9056 25.3291 52.3163 26.0038 52.8443 26.5905C53.4016 27.1771 54.0763 27.6465 54.8683 27.9985C55.6603 28.3505 56.5403 28.5265 57.5083 28.5265C58.3589 28.5265 59.1363 28.3945 59.8403 28.1305C60.5736 27.8665 61.2043 27.4998 61.7323 27.0305C62.2896 26.5611 62.7296 26.0185 63.0523 25.4025C63.4043 24.7571 63.6389 24.0678 63.7563 23.3345V20.9145Z" fill="white"/>
<path d="M72.6298 22.1025C72.6298 20.4011 72.9378 18.8318 73.5538 17.3945C74.1698 15.9278 75.0058 14.6665 76.0618 13.6105C77.1472 12.5251 78.4232 11.6891 79.8898 11.1025C81.3565 10.4865 82.9405 10.1785 84.6418 10.1785C86.3432 10.1785 87.9272 10.4865 89.3938 11.1025C90.8605 11.6891 92.1365 12.5251 93.2218 13.6105C94.3072 14.6665 95.1578 15.9278 95.7738 17.3945C96.3898 18.8318 96.6978 20.4011 96.6978 22.1025C96.6978 23.7745 96.3898 25.3438 95.7738 26.8105C95.1578 28.2478 94.3072 29.5091 93.2218 30.5945C92.1365 31.6505 90.8605 32.4865 89.3938 33.1025C87.9272 33.6891 86.3432 33.9825 84.6418 33.9825C82.9405 33.9825 81.3565 33.6891 79.8898 33.1025C78.4232 32.4865 77.1472 31.6505 76.0618 30.5945C74.9765 29.5091 74.1258 28.2478 73.5098 26.8105C72.9232 25.3438 72.6298 23.7745 72.6298 22.1025ZM78.4378 22.1025C78.4378 22.9531 78.5845 23.7745 78.8778 24.5665C79.1712 25.3291 79.5818 26.0038 80.1098 26.5905C80.6672 27.1771 81.3272 27.6465 82.0898 27.9985C82.8818 28.3505 83.7472 28.5265 84.6858 28.5265C85.6245 28.5265 86.4752 28.3505 87.2378 27.9985C88.0005 27.6465 88.6458 27.1771 89.1738 26.5905C89.7312 26.0038 90.1565 25.3291 90.4498 24.5665C90.7432 23.7745 90.8898 22.9531 90.8898 22.1025C90.8898 21.2518 90.7432 20.4305 90.4498 19.6385C90.1565 18.8465 89.7312 18.1571 89.1738 17.5705C88.6458 16.9838 88.0005 16.5145 87.2378 16.1625C86.4752 15.8105 85.6245 15.6345 84.6858 15.6345C83.7472 15.6345 82.8818 15.8105 82.0898 16.1625C81.3272 16.5145 80.6672 16.9838 80.1098 17.5705C79.5818 18.1571 79.1712 18.8465 78.8778 19.6385C78.5845 20.4305 78.4378 21.2518 78.4378 22.1025ZM79.0098 4.19448C79.0098 3.49048 79.2445 2.90381 79.7138 2.43448C80.2125 1.93581 80.7992 1.68648 81.4738 1.68648C82.1778 1.68648 82.7645 1.93581 83.2338 2.43448C83.7325 2.90381 83.9818 3.49048 83.9818 4.19448C83.9818 4.89848 83.7325 5.49981 83.2338 5.99848C82.7645 6.46781 82.1778 6.70248 81.4738 6.70248C80.7992 6.70248 80.2125 6.46781 79.7138 5.99848C79.2445 5.49981 79.0098 4.89848 79.0098 4.19448ZM85.3458 4.19448C85.3458 3.49048 85.5805 2.90381 86.0498 2.43448C86.5485 1.93581 87.1352 1.68648 87.8098 1.68648C88.5138 1.68648 89.1005 1.93581 89.5698 2.43448C90.0685 2.90381 90.3178 3.49048 90.3178 4.19448C90.3178 4.89848 90.0685 5.49981 89.5698 5.99848C89.1005 6.46781 88.5138 6.70248 87.8098 6.70248C87.1352 6.70248 86.5485 6.46781 86.0498 5.99848C85.5805 5.49981 85.3458 4.89848 85.3458 4.19448Z" fill="white"/>
<path d="M105.708 33.5865L96.9519 10.6185H102.936L108.788 26.8985L114.64 10.6185H120.668L111.912 33.5865H105.708Z" fill="white"/>
<path d="M122.451 4.23848C122.451 3.32914 122.774 2.55181 123.419 1.90648C124.094 1.26114 124.9 0.938477 125.839 0.938477C126.778 0.938477 127.57 1.26114 128.215 1.90648C128.89 2.55181 129.227 3.32914 129.227 4.23848C129.227 5.17714 128.89 5.96914 128.215 6.61448C127.57 7.23048 126.778 7.53848 125.839 7.53848C124.9 7.53848 124.094 7.23048 123.419 6.61448C122.774 5.96914 122.451 5.17714 122.451 4.23848ZM123.067 10.6185H128.611V33.5865H123.067V10.6185Z" fill="white"/>
<path d="M132.655 15.4145V10.6185H149.991V15.4145L139.035 28.7905H150.343V33.5865H132.171V28.7905L143.259 15.4145H132.655Z" fill="white"/>
<path d="M153.92 42.4305V10.6185H159.464V13.6105C160.198 12.5251 161.136 11.6891 162.28 11.1025C163.454 10.4865 164.92 10.1785 166.68 10.1785C168.323 10.1785 169.819 10.4865 171.168 11.1025C172.518 11.6891 173.691 12.5251 174.688 13.6105C175.686 14.6665 176.448 15.9278 176.976 17.3945C177.534 18.8318 177.812 20.4011 177.812 22.1025C177.812 23.7745 177.534 25.3438 176.976 26.8105C176.448 28.2478 175.686 29.5091 174.688 30.5945C173.691 31.6505 172.518 32.4865 171.168 33.1025C169.819 33.6891 168.323 33.9825 166.68 33.9825C164.92 33.9825 163.454 33.6891 162.28 33.1025C161.136 32.4865 160.198 31.6358 159.464 30.5505V42.4305H153.92ZM159.464 21.0465V23.1585C159.552 23.8918 159.758 24.5958 160.08 25.2705C160.432 25.9158 160.872 26.4878 161.4 26.9865C161.958 27.4558 162.603 27.8371 163.336 28.1305C164.07 28.3945 164.862 28.5265 165.712 28.5265C166.68 28.5265 167.56 28.3505 168.352 27.9985C169.144 27.6465 169.804 27.1771 170.332 26.5905C170.89 26.0038 171.315 25.3291 171.608 24.5665C171.902 23.8038 172.048 22.9971 172.048 22.1465C172.048 21.2665 171.902 20.4305 171.608 19.6385C171.315 18.8465 170.89 18.1571 170.332 17.5705C169.804 16.9838 169.144 16.5145 168.352 16.1625C167.56 15.8105 166.68 15.6345 165.712 15.6345C163.982 15.6345 162.559 16.1625 161.444 17.2185C160.33 18.2451 159.67 19.5211 159.464 21.0465Z" fill="white"/>
<path d="M203.626 33.5865H198.082V30.5505C197.378 31.6358 196.439 32.4865 195.266 33.1025C194.092 33.6891 192.626 33.9825 190.866 33.9825C189.252 33.9825 187.756 33.6891 186.378 33.1025C185.028 32.4865 183.855 31.6505 182.858 30.5945C181.86 29.5091 181.083 28.2478 180.526 26.8105C179.998 25.3438 179.734 23.7745 179.734 22.1025C179.734 20.4011 179.998 18.8318 180.526 17.3945C181.083 15.9278 181.86 14.6665 182.858 13.6105C183.855 12.5251 185.028 11.6891 186.378 11.1025C187.756 10.4865 189.267 10.1785 190.91 10.1785C192.67 10.1785 194.122 10.4865 195.266 11.1025C196.439 11.6891 197.378 12.5251 198.082 13.6105V10.6185H203.626V33.5865ZM198.082 21.0465C197.876 19.5211 197.216 18.2451 196.102 17.2185C194.987 16.1625 193.564 15.6345 191.834 15.6345C190.866 15.6345 189.986 15.8105 189.194 16.1625C188.402 16.5145 187.727 16.9838 187.17 17.5705C186.642 18.1571 186.231 18.8465 185.938 19.6385C185.644 20.4305 185.498 21.2665 185.498 22.1465C185.498 22.9971 185.644 23.8038 185.938 24.5665C186.231 25.3291 186.642 26.0038 187.17 26.5905C187.727 27.1771 188.402 27.6465 189.194 27.9985C189.986 28.3505 190.866 28.5265 191.834 28.5265C192.684 28.5265 193.476 28.3945 194.21 28.1305C194.943 27.8371 195.574 27.4558 196.102 26.9865C196.659 26.4878 197.099 25.9158 197.422 25.2705C197.774 24.5958 197.994 23.8918 198.082 23.1585V21.0465Z" fill="white"/>
<path d="M208.363 10.6185H213.907V15.0625C214.846 13.4198 216.063 12.2025 217.559 11.4105C219.085 10.5891 220.713 10.1785 222.443 10.1785V16.0305C221.446 16.0011 220.449 16.1478 219.451 16.4705C218.454 16.7638 217.545 17.2038 216.723 17.7905C215.931 18.3771 215.271 19.1251 214.743 20.0345C214.245 20.9145 213.966 21.9411 213.907 23.1145V33.5865H208.363V10.6185Z" fill="white"/>
<path d="M247.842 33.5865H242.298V30.5505C241.594 31.6358 240.656 32.4865 239.482 33.1025C238.309 33.6891 236.842 33.9825 235.082 33.9825C233.469 33.9825 231.973 33.6891 230.594 33.1025C229.245 32.4865 228.072 31.6505 227.074 30.5945C226.077 29.5091 225.3 28.2478 224.742 26.8105C224.214 25.3438 223.95 23.7745 223.95 22.1025C223.95 20.4011 224.214 18.8318 224.742 17.3945C225.3 15.9278 226.077 14.6665 227.074 13.6105C228.072 12.5251 229.245 11.6891 230.594 11.1025C231.973 10.4865 233.484 10.1785 235.126 10.1785C236.886 10.1785 238.338 10.4865 239.482 11.1025C240.656 11.6891 241.594 12.5251 242.298 13.6105V10.6185H247.842V33.5865ZM242.298 21.0465C242.093 19.5211 241.433 18.2451 240.318 17.2185C239.204 16.1625 237.781 15.6345 236.05 15.6345C235.082 15.6345 234.202 15.8105 233.41 16.1625C232.618 16.5145 231.944 16.9838 231.386 17.5705C230.858 18.1571 230.448 18.8465 230.154 19.6385C229.861 20.4305 229.714 21.2665 229.714 22.1465C229.714 22.9971 229.861 23.8038 230.154 24.5665C230.448 25.3291 230.858 26.0038 231.386 26.5905C231.944 27.1771 232.618 27.6465 233.41 27.9985C234.202 28.3505 235.082 28.5265 236.05 28.5265C236.901 28.5265 237.693 28.3945 238.426 28.1305C239.16 27.8371 239.79 27.4558 240.318 26.9865C240.876 26.4878 241.316 25.9158 241.638 25.2705C241.99 24.5958 242.21 23.8918 242.298 23.1585V21.0465Z" fill="white"/>
<path d="M3.59939 9.69639L0.920985 14.3355L5.68217 17.0844L1.17115 24.8977C0.392583 26.2462 0.854717 27.9706 2.20317 28.7491L6.84226 31.4275L12.754 21.188L12.754 31.9399C12.7541 33.4969 14.0163 34.7592 15.5735 34.7593L20.9303 34.7593L20.9303 25.8879L26.1921 28.9258C27.5405 29.7043 29.2649 29.2424 30.0435 27.8939L32.7219 23.2547L28.0217 20.5411L32.5327 12.7278C33.3113 11.3792 32.8492 9.65494 31.5007 8.87641L26.8616 6.19803L20.9409 16.453L20.9302 16.4468L20.9302 5.57869C20.9302 4.02158 19.668 2.75933 18.1109 2.75925L12.754 2.75914L12.7541 11.7263L7.45072 8.66442C6.10225 7.88588 4.37796 8.34787 3.59939 9.69639Z" fill="#F4A41D"/>
</svg>
